<svg width="218" height="120" viewBox="0 0 218 120" fill="none" xmlns="http://www.w3.org/2000/svg">
<path fill-rule="evenodd" clip-rule="evenodd" d="M210.64 7.69027C208.905 8.08557 206.456 8.63966 205.198 8.92186C203.941 9.20461 201.924 9.65756 200.717 9.92889C199.509 10.2008 192.183 11.8445 184.436 13.5823C176.689 15.3207 169.342 16.9694 168.11 17.2461C166.877 17.5234 160.671 18.9171 154.317 20.3433C143.583 22.7527 142.478 23.0159 142.728 23.1072C142.779 23.1252 143.582 23.5455 144.512 24.0408C145.443 24.5356 148.818 26.3317 152.012 28.0309C158.742 31.6115 158.075 31.1917 157.577 31.531C155.06 33.2487 140.495 42.0732 140.178 42.0732C140.109 42.0732 140 41.9395 139.936 41.7758C129.306 14.6856 99.0098 0.767786 71.5869 10.3769C50.0174 17.9351 35.6945 37.8836 35.341 60.8598C35.3177 62.3638 35.2807 63.6242 35.2579 63.6606C35.235 63.6976 34.4031 64.1587 33.4086 64.6862C22.0817 70.693 13.9102 77.0592 9.90007 83.0029C9.4928 83.6065 8.98765 84.3476 8.77831 84.6494C7.87569 85.9484 7.14924 87.8173 6.89041 89.5083C6.80667 90.0554 6.7039 90.517 6.66204 90.5333C6.51794 90.591 6.57177 92.1945 6.72239 92.3456C6.80395 92.4267 6.85996 92.6507 6.85996 92.8959C6.85996 93.984 7.35532 95.7354 8.2922 97.9571C9.94194 101.872 11.652 105.192 12.4764 106.083C13.8221 107.537 20.1503 108.445 25.3812 107.934C29.8274 107.5 30.5147 107.415 33.2927 106.958C38.9592 106.026 45.6446 104.488 52.1342 102.624C53.0145 102.371 53.7611 102.165 53.7932 102.165C53.8253 102.165 54.2162 102.478 54.6621 102.86C61.2942 108.553 70.5179 112.943 79.2075 114.543C81.2732 114.923 81.5734 114.969 83.2307 115.153C84.1111 115.251 84.8446 115.373 84.862 115.425C84.9006 115.541 94.0242 115.556 94.0242 115.44C94.0242 115.397 94.364 115.334 94.7789 115.3C96.4591 115.163 99.4247 114.677 101.55 114.19C123.697 109.115 140.249 90.89 143.174 68.3597C143.519 65.7073 143.527 65.604 143.587 63.0223L143.644 60.6021L145.473 59.5841C149.736 57.2129 155.621 53.8726 159.695 51.5116C160.777 50.8852 162.032 50.1582 162.485 49.8962C164.319 48.8358 166.268 47.694 166.817 47.3579C167.136 47.1622 167.407 47.0143 167.418 47.03C167.429 47.0453 167.552 50.8238 167.692 55.4266C167.832 60.0295 167.963 63.814 167.985 63.8363C168.042 63.8972 167.436 64.6383 181.377 47.4694C188.587 38.5905 198.923 25.8646 204.346 19.1884C209.77 12.5128 214.207 7.02853 214.207 7.00134C214.207 6.89531 213.697 6.99427 210.64 7.69027ZM94.1161 11.8413C110.69 13.5617 124.665 22.5651 132.806 36.7668C134.4 39.5486 136.424 44.0829 136.174 44.3124C136.107 44.3744 134.714 45.1373 133.079 46.0089C129.55 47.8897 129.871 47.7184 125.663 49.9636C123.823 50.9456 122.157 51.8286 121.959 51.9254C121.762 52.0228 119.995 52.9477 118.033 53.9803C116.072 55.0128 113.582 56.3129 112.5 56.8692C111.418 57.426 109.443 58.445 108.11 59.1339C102.357 62.1077 86.9255 69.7539 82.0883 72.0279C68.7616 78.293 58.7783 82.6098 51.0364 85.4552C49.3344 86.0811 46.7647 86.9815 46.682 86.9815C46.2285 86.9815 43.1672 80.3114 42.0433 76.8749C32.0726 46.3862 53.48 14.2767 85.4269 11.8021C86.1061 11.7499 86.8467 11.6906 87.0734 11.6705C88.0244 11.5879 92.7839 11.7031 94.1161 11.8413ZM205.684 12.3323C205.359 12.7879 170.991 55.0466 170.966 55.0215C170.951 55.0052 170.838 51.8694 170.716 48.0523C170.343 36.3747 170.293 35.0888 170.201 34.7282C170.069 34.2095 169.565 33.7827 168.195 33.0268C166.563 32.1275 158.666 27.8748 154.922 25.8798C153.278 25.0033 151.952 24.2676 151.975 24.2447C152.025 24.1942 205.402 12.1882 205.638 12.1746C205.781 12.1659 205.787 12.1871 205.684 12.3323ZM162.515 33.6859C162.783 34.0083 167.084 41.6518 167.048 41.741C167.007 41.8421 162.263 44.8458 161.972 44.9546C161.848 45.0008 157.44 37.708 157.176 37.0196C157.108 36.8434 157.064 36.875 159.847 35.1203C162.514 33.4396 162.374 33.5151 162.515 33.6859ZM157.352 42.2924C158.59 44.5255 159.604 46.3754 159.604 46.402C159.604 46.5053 151.373 51.4937 151.203 51.4937C151.094 51.4937 146.85 43.0895 146.922 43.0172C147.081 42.8579 154.832 38.2468 154.951 38.2398C155.056 38.2343 155.769 39.4371 157.352 42.2924ZM145.721 49.254C146.916 51.5171 147.881 53.4077 147.866 53.455C147.834 53.5567 143.755 55.935 138.842 58.7163C101.617 79.7904 60.943 97.2965 38.0109 102.115C28.9183 104.025 18.5702 104.447 15.2375 103.042C14.976 102.932 13.4861 99.2262 12.2001 95.488C12.0462 95.0405 12.0881 95.0214 12.783 95.2237C20.8055 97.5607 34.1986 95.6853 49.5732 90.0722C76.4567 80.257 108.604 64.9776 139.155 47.4955C141.215 46.3172 142.984 45.2933 143.088 45.2199C143.44 44.973 143.546 45.1345 145.721 49.254ZM139.269 64.5959C138.915 72.5374 135.883 81.612 131.211 88.7194C115.447 112.7 82.6603 118.539 59.7484 101.446C58.5423 100.546 58.4983 100.491 58.8794 100.356C65.0602 98.1583 74.6433 94.4119 83.1405 90.8699C89.2174 88.3371 97.5064 84.6211 104.405 81.3374C112.486 77.4909 117.392 75.0435 123.979 71.5733C125.387 70.8316 126.89 70.0405 127.317 69.8153C127.745 69.5908 128.156 69.3548 128.231 69.2912C128.307 69.2281 129.048 68.8138 129.878 68.3706C131.758 67.3679 136.613 64.6987 138.018 63.895C139.432 63.087 139.339 63.0353 139.269 64.5959ZM35.7157 68.8491C35.887 70.8474 36.3676 73.4819 36.8217 74.9087C36.9418 75.286 37.0408 75.6444 37.0414 75.7047C37.0424 75.7656 36.2709 76.2071 35.328 76.6862C26.4975 81.1721 19.7017 86.6161 17.0455 91.3326L16.5093 92.2847L16.0521 92.2858C14.796 92.2874 11.4035 91.3794 10.9419 90.9172C10.8011 90.7769 11.4639 88.8814 12.0789 87.6634C15.3735 81.146 23.0572 74.5166 33.613 69.0856C35.8136 67.953 35.6406 67.9726 35.7157 68.8491ZM39.1022 81.2651C39.927 83.333 40.5948 84.7946 41.5746 86.6749C42.1564 87.7912 42.3168 88.1729 42.2314 88.2403C41.8769 88.5204 34.7195 90.5926 30.7774 91.5561C27.3387 92.3967 25.4366 92.7295 23.6254 92.8067C17.8502 93.0525 21.9126 89.1196 36.0365 80.7898C37.1686 80.1221 38.1734 79.586 38.2697 79.5974C38.4062 79.6143 38.591 79.984 39.1022 81.2651Z" fill="#757575"/>
<path fill-rule="evenodd" clip-rule="evenodd" d="M178.745 18.1933C164.044 21.4988 151.998 24.2219 151.975 24.2447C151.951 24.2676 153.278 25.0032 154.922 25.8798C158.666 27.8748 166.563 32.1275 168.195 33.0268C169.565 33.7826 170.069 34.2095 170.201 34.7282C170.293 35.0887 170.343 36.3747 170.716 48.0523C170.838 51.8694 170.951 55.0052 170.966 55.0215C170.991 55.0465 205.359 12.7879 205.684 12.3322C205.86 12.0854 207.512 11.7254 178.745 18.1933ZM159.847 35.1203C157.064 36.8749 157.108 36.8434 157.176 37.0196C157.44 37.708 161.848 45.0007 161.972 44.9545C162.263 44.8458 167.007 41.8421 167.048 41.741C167.084 41.6518 162.783 34.0083 162.515 33.6858C162.374 33.5151 162.514 33.4395 159.847 35.1203ZM150.884 40.611C148.729 41.9101 146.946 42.9927 146.922 43.0171C146.849 43.0895 151.094 51.4937 151.203 51.4937C151.373 51.4937 159.604 46.5053 159.604 46.402C159.604 46.1785 155.075 38.2332 154.951 38.2397C154.869 38.2446 153.038 39.3115 150.884 40.611ZM143.088 45.2199C142.984 45.2933 141.215 46.3172 139.155 47.4955C108.604 64.9776 76.4567 80.2569 49.5731 90.0722C34.1986 95.6853 20.8055 97.5607 12.783 95.2237C12.0881 95.0214 12.0462 95.0404 12.2001 95.4879C13.4861 99.2262 14.9759 102.932 15.2375 103.042C18.5701 104.447 28.9182 104.025 38.0108 102.115C60.9429 97.2964 101.617 79.7904 138.842 58.7163C143.755 55.935 147.834 53.5566 147.866 53.455C147.913 53.3049 143.554 45.1399 143.413 45.1133C143.338 45.0992 143.192 45.147 143.088 45.2199ZM33.613 69.0856C23.0571 74.5166 15.3734 81.146 12.0788 87.6634C11.4639 88.8814 10.801 90.7769 10.9419 90.9172C11.4035 91.3793 14.796 92.2874 16.052 92.2858L16.5093 92.2847L17.0454 91.3326C19.7017 86.6161 26.4975 81.1721 35.328 76.6861C36.2708 76.2071 37.0424 75.7656 37.0413 75.7047C37.0408 75.6443 36.9418 75.286 36.8216 74.9086C36.3676 73.4818 35.8869 70.8474 35.7156 68.8491C35.6406 67.9725 35.8135 67.953 33.613 69.0856Z" fill="#E53935"/>
<path fill-rule="evenodd" clip-rule="evenodd" d="M85.0153 11.8489C49.0701 15.2217 28.4348 54.1319 45.8859 85.6325C46.7016 87.1044 46.483 87.031 48.2578 86.4263C57.0084 83.445 71.9881 76.9341 88.0858 69.1155L89.3272 68.513L89.3207 66.7486C89.3066 62.864 91.1259 59.1959 93.6332 58.0535C93.9719 57.899 93.9562 57.9904 93.4304 59.2089C92.0726 62.3578 91.6093 64.8666 92.0987 66.4218C92.2792 66.996 92.3053 67.0308 92.5 66.9568C93.1177 66.7225 109.697 58.3362 110.527 57.8392C110.693 57.7392 110.693 57.7294 110.502 57.5244C110.117 57.1122 109.356 54.6066 109.529 54.3261C109.555 54.2842 109.535 54.0645 109.485 53.8383C108.997 51.6628 110.465 48.2932 112.486 46.949C113.739 46.1149 116.586 45.464 118.032 45.681C118.583 45.7636 118.555 45.8441 117.84 46.2443C114.95 47.8603 113.324 50.3485 113.323 53.1548C113.323 54.1966 113.699 55.5506 114.074 55.8622C114.188 55.9568 117.598 54.2483 121.054 52.3642L121.853 51.9287L121.792 51.094C121.659 49.2708 122.154 47.3171 123.123 45.849C123.856 44.7376 123.879 44.4842 123.327 43.674C122.2 42.0215 121.901 40.4778 121.645 34.9849C121.377 29.2391 120.564 27.2794 116.552 22.7141C115.587 21.6157 113.999 19.7996 113.023 18.6789C111.022 16.3805 111.299 16.5833 108.704 15.5039C101.348 12.4426 92.7795 11.1208 85.0153 11.8489ZM97.1447 15.8123C97.4671 16.1347 97.4998 16.2119 97.4998 16.6475C97.4998 17.7785 96.1067 18.3429 95.3846 17.5049C94.3569 16.3125 96.0333 14.7008 97.1447 15.8123ZM108.834 20.8158C109.145 21.0774 109.236 21.7571 109.002 22.0681C108.636 22.5531 107.78 22.5248 107.462 22.0164C106.902 21.1231 108.029 20.1383 108.834 20.8158ZM112.909 25.1267C111.493 30.0264 112.847 34.1741 116.479 36.0582C117.614 36.6477 117.538 36.7216 116.175 36.3568C113.693 35.6917 111.776 34.4069 111.054 32.9241C109.741 30.2265 110.506 26.125 112.605 24.6041C113.112 24.2371 113.148 24.2986 112.909 25.1267ZM99.0549 31.0769C99.0549 31.1155 98.938 31.2906 98.7955 31.4652C96.9022 33.7886 95.7462 37.0799 96.0338 39.3294C96.3111 41.4968 97.0686 42.9595 98.9173 44.8991L99.6492 45.6668L99.2833 45.6C93.6272 44.5663 91.705 37.3306 95.8963 32.8496C96.8723 31.8067 99.0549 30.5816 99.0549 31.0769ZM108.442 32.6756C112.4 36.7744 112.238 41.8948 108.043 45.2704C106.714 46.34 106.212 46.5167 106.748 45.7256C109.155 42.1711 109.594 37.249 107.885 32.9773C107.298 31.5092 107.31 31.5022 108.442 32.6756ZM126.613 41.1548C125.701 41.7105 125.353 44.3575 125.707 48.0463C125.787 48.8918 125.854 49.6221 125.854 49.6699C125.854 49.8401 126.104 49.7319 127.637 48.9016L129.192 48.0593L129.218 46.1867C129.262 43.0933 128.876 41.6741 127.846 41.1488C127.412 40.927 126.982 40.9291 126.613 41.1548ZM125.854 70.6005L123.796 71.6853L123.769 72.9995C123.73 74.9586 124.037 76.0054 124.902 76.8678C126.102 78.0635 127.774 77.3658 127.774 75.6688C127.774 74.9712 128.319 74.2072 129.025 73.9146C129.797 73.5949 129.619 72.1426 128.578 70.2895C128.055 69.3586 128.252 69.3363 125.854 70.6005ZM115.03 76.1805L109.466 78.9797L108.979 80.0313C107.554 83.1116 107.555 86.2088 108.984 89.1511C109.579 90.3783 109.569 90.2745 109.091 90.2745C106.086 90.2745 102.856 87.0609 102.077 83.2943C102.016 83.0018 101.907 82.7403 101.835 82.7125C101.763 82.6848 99.9456 83.4662 97.7956 84.4493C93.7213 86.3121 90.356 87.8036 86.2501 89.5665L83.8261 90.6067L83.7967 90.959C83.7337 91.717 84.5237 92.7855 85.5253 93.2961C86.1349 93.6071 85.9875 93.6865 84.8826 93.6408C83.551 93.5859 82.8153 93.2488 81.9235 92.2852L81.3319 91.6469L79.4239 92.4326C73.8271 94.737 66.3717 97.6423 61.484 99.4225C60.0615 99.9407 58.8321 100.413 58.7516 100.471C58.29 100.809 64.6633 104.855 68.3537 106.567C73.111 108.773 82.5679 111.452 82.2802 110.511C81.8849 109.216 81.8305 107.53 82.1361 106.039C82.8267 102.671 83.4623 102.488 84.1311 105.464C84.8027 108.454 85.8081 109.839 87.311 109.846C89.1967 109.854 89.5817 108.488 88.3882 106.024C86.839 102.826 88.0608 99.8945 91.2026 99.2681C92.9557 98.919 95.6619 99.1142 96.6831 99.6645C97.8358 100.284 97.6314 101.054 95.8778 102.695C93.9839 104.467 93.8235 105.535 95.3384 106.281C97.1398 107.168 99.5932 106.368 99.9771 104.768C100.383 103.076 100.674 102.475 101.478 101.653C102.139 100.979 102.99 100.412 104.622 99.5606C105.293 99.2099 106.014 98.7754 106.222 98.5949C106.43 98.4149 106.93 98.037 107.332 97.7554C109.388 96.3161 111.953 92.842 116.131 85.8385C118.184 82.3977 118.014 82.9365 117.892 80.2591C117.84 79.1107 117.867 79.0569 119.188 77.6904C120.598 76.2316 121.265 74.5579 120.859 73.4981C120.776 73.2812 120.977 73.1882 115.03 76.1805ZM98.4606 86.4214C99.7221 87.0261 100.21 88.0304 100.128 89.8558C100.02 92.2722 98.8292 93.7621 96.5433 94.3433C95.3721 94.6408 95.1089 94.5065 95.8321 93.9796C97.9946 92.4032 98.8048 89.7122 97.925 87.0272C97.5862 85.9946 97.5813 86.0006 98.4606 86.4214ZM116.368 94.246C113.008 95.8267 109.424 100.427 110.414 101.89C111.209 103.065 113.873 101.129 116.583 97.4084C118.312 95.035 118.2 93.3842 116.368 94.246ZM75.9515 97.421C76.4681 97.6564 76.5763 98.2795 76.1793 98.7314C75.8237 99.137 75.423 99.168 75.0119 98.8222C74.2023 98.1409 74.9815 96.9794 75.9515 97.421Z" fill="#FFD54F"/>
<path fill-rule="evenodd" clip-rule="evenodd" d="M88.473 11.6841C89.0673 11.7004 90.0134 11.6999 90.5767 11.6841C91.1401 11.6683 90.654 11.6547 89.4969 11.6553C88.3398 11.6553 87.8792 11.6683 88.473 11.6841ZM92.538 11.7717C92.6511 11.7939 92.8366 11.7939 92.9497 11.7717C93.0628 11.7499 92.9703 11.7325 92.7436 11.7325C92.5174 11.7325 92.4249 11.7499 92.538 11.7717ZM95.483 15.8063C94.9512 16.3386 94.9153 16.9601 95.3846 17.505C96.1067 18.3429 97.4998 17.7785 97.4998 16.6475C97.4998 15.5518 96.2562 15.0331 95.483 15.8063ZM111.362 16.747C111.427 16.8514 113.894 19.6876 116.553 22.7141C120.565 27.2805 121.377 29.2396 121.645 34.9849C121.901 40.4778 122.2 42.0215 123.327 43.674C123.879 44.4842 123.856 44.7376 123.123 45.849C122.428 46.9028 122.084 47.8429 121.878 49.2529C121.744 50.1653 121.756 51.951 121.896 51.951C122.019 51.951 125.931 49.8081 125.9 49.758C125.754 49.5204 125.565 46.3145 125.607 44.7713C125.68 42.0786 126.145 40.977 127.206 40.9759C128.619 40.9743 129.238 42.537 129.238 46.1062C129.238 47.1578 129.256 48.0186 129.278 48.0186C129.359 48.0186 136.057 44.4189 136.174 44.3118C136.425 44.0834 134.4 39.5469 132.806 36.7667C128.504 29.263 121.863 22.5319 114.687 18.4038C113.514 17.729 111.282 16.6165 111.362 16.747ZM107.881 20.6658C107.11 20.9811 107.155 22.1763 107.946 22.3922C108.597 22.5694 109.116 22.1671 109.116 21.4847C109.116 20.8044 108.515 20.4064 107.881 20.6658ZM112.605 24.6042C110.506 26.125 109.741 30.2265 111.054 32.9241C111.776 34.4069 113.693 35.6918 116.175 36.3568C117.538 36.7216 117.614 36.6477 116.479 36.0582C112.847 34.1742 111.493 30.0264 112.909 25.1267C113.148 24.2986 113.112 24.2371 112.605 24.6042ZM98.5062 31.0916C94.4651 32.3254 92.2684 38.5377 94.5472 42.2885C95.4585 43.7893 97.6118 45.2944 99.2833 45.6L99.6492 45.6668L98.9173 44.8991C97.0686 42.9595 96.3111 41.4968 96.0338 39.3294C95.7462 37.0799 96.9022 33.7886 98.7955 31.4652C99.174 31.0014 99.1027 30.9095 98.5062 31.0916ZM107.469 31.8839C107.469 31.9143 107.656 32.4059 107.885 32.9774C109.594 37.2491 109.155 42.1711 106.748 45.7256C106.212 46.5167 106.714 46.34 108.043 45.2705C112.238 41.8949 112.4 36.7744 108.442 32.6756C107.706 31.9127 107.469 31.7202 107.469 31.8839ZM116.185 45.7408C112.139 46.2117 109.869 48.4949 109.484 52.4811C109.429 53.0493 109.407 53.5507 109.435 53.5958C109.463 53.6409 109.505 53.9819 109.529 54.3527C109.612 55.6544 110.263 57.5385 110.675 57.669C110.802 57.7093 111.349 57.4717 112.479 56.885C114.381 55.898 114.21 56.0155 114.035 55.8159C113.426 55.1221 113.179 53.455 113.454 51.8944C113.866 49.5568 115.36 47.6309 117.84 46.2443C118.173 46.0578 118.445 45.8718 118.445 45.83C118.445 45.6391 117.409 45.5983 116.185 45.7408ZM92.9062 58.5651C90.2527 60.5884 88.9542 64.0103 89.3473 67.941L89.4055 68.5196L90.7904 67.8339C92.4217 67.0259 92.3249 67.133 92.0911 66.3957C91.6088 64.8726 92.0813 62.3371 93.4309 59.2073C94.0866 57.687 94.0758 57.6734 92.9062 58.5651ZM138.018 63.895C136.613 64.6986 131.758 67.3679 129.878 68.3706C127.992 69.3771 128.001 69.3695 128.218 69.6843C129.495 71.5401 129.88 73.5607 129.025 73.9147C128.319 74.2072 127.774 74.9712 127.774 75.6688C127.774 76.9113 126.737 77.7758 125.702 77.3952C124.399 76.9162 123.754 75.4823 123.751 73.055L123.75 71.7043L123.27 71.9441C121.423 72.8658 120.739 73.2877 120.827 73.4519C121.326 74.3845 120.621 76.2087 119.188 77.6905C117.867 79.0569 117.84 79.1107 117.892 80.2591C118.014 82.9366 118.184 82.3977 116.131 85.8385C111.953 92.842 109.388 96.3161 107.332 97.7554C106.93 98.037 106.43 98.4149 106.222 98.5949C106.014 98.7755 105.293 99.2099 104.622 99.5606C102.99 100.412 102.139 100.979 101.478 101.653C100.674 102.475 100.383 103.077 99.9771 104.768C99.5932 106.368 97.1398 107.168 95.3384 106.281C93.8235 105.535 93.9839 104.467 95.8778 102.695C98.4524 100.285 97.6297 99.1033 93.3841 99.1126C90.3902 99.1196 89.082 99.7259 88.1821 101.524C87.4355 103.015 87.4882 104.167 88.3881 106.024C89.5817 108.488 89.1967 109.854 87.311 109.846C85.8081 109.839 84.8027 108.454 84.1311 105.464C83.4623 102.488 82.8267 102.671 82.1361 106.039C81.8305 107.53 81.8849 109.216 82.2802 110.511C82.3166 110.63 82.2748 110.673 82.1176 110.681C81.6902 110.702 84.1409 111.029 85.4726 111.129C108.052 112.824 128.861 99.3921 136.453 78.2201C137.953 74.0381 139.094 68.5179 139.269 64.5959C139.339 63.0353 139.432 63.087 138.018 63.895ZM106.646 80.2657C105.112 80.9976 103.373 81.8262 102.783 82.1073C101.938 82.5092 101.736 82.6397 101.837 82.7191C101.907 82.7745 102.046 83.1492 102.146 83.5521C103.076 87.305 106.144 90.2745 109.091 90.2745C109.569 90.2745 109.579 90.3783 108.984 89.1511C107.647 86.3981 107.565 83.0926 108.768 80.4897C109.281 79.3821 109.48 78.9329 109.457 78.934C109.446 78.9346 108.181 79.5338 106.646 80.2657ZM97.6841 86.2273C97.6846 86.2648 97.7928 86.6248 97.925 87.0272C98.8048 89.7122 97.9946 92.4032 95.8321 93.9796C95.1089 94.5065 95.3721 94.6408 96.5433 94.3433C98.8292 93.7621 100.02 92.2722 100.128 89.8558C100.194 88.4018 100.009 87.7955 99.2457 86.9473C98.8994 86.5623 97.6803 86 97.6841 86.2273ZM82.5227 91.1178C81.2117 91.6703 81.2558 91.5746 81.9621 92.3293C82.8223 93.2493 83.5749 93.587 84.8826 93.6408C85.9853 93.6859 86.1348 93.6071 85.5302 93.2988C84.5694 92.8083 83.7864 91.7921 83.7826 91.0292C83.7799 90.555 83.8756 90.548 82.5227 91.1178ZM117.733 94.3912C118.161 95.2661 116.916 97.3323 114.238 100.189C111.629 102.972 109.399 102.931 110.533 100.12C111.778 97.0322 116.995 92.8817 117.733 94.3912ZM75.0761 97.4569C74.5644 97.7347 74.5323 98.4187 75.0119 98.8222C75.423 99.168 75.8237 99.137 76.1793 98.7314C76.853 97.9647 75.9858 96.9631 75.0761 97.4569Z" fill="#CCAA3F"/>
</svg>
